<svg xmlns="http://www.w3.org/2000/svg" xml:space="preserve" width="1.70666in" height="1.70666in" version="1.1" style="shape-rendering:geometricPrecision; text-rendering:geometricPrecision; image-rendering:optimizeQuality; fill-rule:evenodd; clip-rule:evenodd" viewBox="0 0 1707 1707" xmlns:xlink="http://www.w3.org/1999/xlink">
 <defs>
  <style type="text/css">
   
    .fil0 {fill:black}
   
  </style>
 </defs>
 <g id="Layer_x0020_1">
  <metadata id="CorelCorpID_0Corel-Layer"></metadata>
  <path class="fil0" d="M824 1448l-223 -233 -77 0c-113,0 -206,92 -206,206l0 206 1070 0 0 -206c0,-114 -92,-206 -205,-206l-77 0c-28,29 -219,233 -233,241 -16,8 -36,5 -49,-8zm-68 -650c-45,25 -7,95 39,70 0,0 60,-33 116,-1 45,27 85,-42 40,-69 -96,-55 -194,0 -195,0zm-29 230c-17,28 -38,67 -54,107l360 0c-16,-40 -37,-79 -53,-107 -70,47 -183,47 -253,0zm-59 -58c-54,-49 -62,-21 -120,-146 -17,-36 -38,-87 -47,-141 -12,-58 -18,-124 -9,-197 -1,-16 0,-44 16,-93l-141 -45 0 155c0,53 -80,53 -80,0l0 -181 -118 -38c-37,-12 -37,-65 0,-76l673 -206c7,-3 15,-3 23,0l673 206c36,11 37,64 0,76l-340 109c16,49 18,77 16,93 14,106 -4,199 -28,272 -10,28 -21,53 -31,75 -58,118 -65,90 -116,138 21,35 58,100 79,164l65 0c157,0 285,128 285,286l0 246c0,22 -17,40 -40,40l-1150 0c-22,0 -40,-18 -40,-40l0 -246c0,-158 128,-286 286,-286l64 0c22,-64 58,-129 80,-165zm-72 -584c-11,29 -17,50 -21,65 128,11 429,11 556,0 -3,-16 -9,-38 -21,-67 -12,-28 12,-44 -13,-77 -43,-54 -172,-76 -247,-76 -70,-1 -275,35 -252,123 3,11 3,22 -2,32zm-27 144c-2,28 -1,56 1,81 23,-23 35,-53 42,-78 -16,-1 -30,-2 -43,-3zm18 170c9,35 21,65 33,90 57,121 81,78 132,153 34,51 166,55 202,1 50,-75 88,-35 147,-189 -90,-97 -117,-132 -256,-155 -77,-12 -127,-41 -152,-60 -11,49 -38,119 -106,160zm541 -34c8,-41 13,-87 10,-136 -50,5 -122,7 -200,9 87,24 129,63 190,127zm-416 549l141 148 142 -148 -283 0zm144 -1064c89,0 300,31 330,162l206 -66 -539 -165 -538 165 206 66c30,-134 245,-162 335,-162z" id="id_101" style="fill: rgb(243, 243, 243);"></path>
 </g>
</svg>