<svg version="1.1" id="Layer_1" xmlns="http://www.w3.org/2000/svg" xmlns:xlink="http://www.w3.org/1999/xlink" x="0px" y="0px" viewBox="0 0 640.7624 398.6442" enable-background="new 0 0 640.7624 398.6442" xml:space="preserve">
<g>
	<path d="M594.2915,135.7675l-1.7699-2.752l8.4691-3.5164c4.3787-1.8181,6.4572-6.8463,4.6379-11.2276l-2.4705-5.9502
		c-1.8185-4.3796-6.8472-6.4568-11.2258-4.6388l-43.4875,18.0563c-0.5768-2.116-1.278-4.2114-2.1328-6.2701l-1.1504-2.7705
		l-2.8649,1.1896l-2.6761,1.1112l1.1504,2.7705c4.6279,11.1475,4.6387,23.4297,0.0293,34.584
		c-4.6094,11.1553-13.2871,19.8467-24.4336,24.4756c-23.0127,9.5547-49.5039-1.3955-59.0586-24.4053l-1.1504-2.7705l-2.6763,1.1113
		l-2.8647,1.1895l1.1504,2.7705c0.8589,2.0686,1.8452,4.0454,2.9342,5.9371l-5.589,2.3206L192.3499,273.5913l-0.7813,0.3243
		c-0.5712-2.1074-1.2676-4.203-2.1267-6.2722l-1.1504-2.7705l-2.8654,1.1897l-2.6757,1.1111l1.1504,2.7705
		c9.5537,23.0107-1.3945,49.5049-24.4053,59.0596c-23.0098,9.5508-49.5039-1.3945-59.0586-24.4053l-1.1504-2.7705l-2.676,1.1111
		l-2.865,1.1897l1.1504,2.7705c0.8589,2.0686,1.8452,4.0454,2.9341,5.9371L58.054,329.3517
		c-4.3813,1.8192-6.4607,6.8477-4.6423,11.2273l2.4706,5.9502c1.8192,4.3813,6.8488,6.4583,11.2301,4.6392l0.1152-0.0479
		l-0.3699,0.3467l1.5374,2.5973l0.5803-0.152c0.5864,13.9453,3.6614,27.6378,5.2634,31.4961
		c1.0579,2.5477,4.0452,4.1943,8.4579,5.1335l3.2548-6.1489l0.4474-0.1294l1.0314,1.9121l3.913-0.5059l0.4845-2.7545l-0.1808-0.1687
		l3.6058-1.0424l0.6665,9.8071c11.2231-0.1764,25.6814-2.0967,40.9178-4.8403l-0.1434,4.2756l9.0728,4.7024l7.3395-8.1064
		l-3.724-3.2729c9.8093-1.9783,19.6528-4.1813,28.9053-6.3767l-0.7009,4.1405l1.8049,6.3146l5.6484,3.137l7.8342-2.9817
		l4.3235-6.433l-6.7102-7.1456c21.8312-5.4375,37.9597-10.1118,37.9597-10.1118s39.9448,14.366,64.2893,22.7694l9.4761-10.6132
		c-2.2976-0.8337-4.8645-1.7794-7.6627-2.8308c0.3196-0.2489,0.6295-0.5156,0.9159-0.8193l26.9248-28.5459l26.7012-16.2098
		c0.3079-0.0194,0.6167-0.0486,0.9265-0.0952c7.6306-1.1466,15.9904-8.2322,17.2813-20.3816l15.0007-6.2284l21.3387,51.3933
		c-8.1559,3.3134-16.2762,6.3997-24.1323,9.2236c1.6705-4.9751,1.6235-10.5513-0.547-15.7789
		c-4.7653-11.4767-17.9321-16.9169-29.408-12.152c-11.4778,4.7656-16.9172,17.9312-12.1521,29.408
		c1.6907,4.072,4.4421,7.3792,7.7971,9.7451c-8.5088,2.4823-15.8746,4.3704-21.5532,5.5641l2.0028,9.5687l8.7958,1.1403
		c20.7036-5.1012,50.6594-15.0535,78.2804-26.5219c43.6313-18.116,93.3295-44.9508,100.002-53.1472
		c6.6727-8.1965,29.9103-76.3567,29.9103-76.3567s80.254-48.4368,82.6563-52.9211c2.3994-4.4832-12.3521-29.7488-12.3521-29.7488
		L594.2915,135.7675z M333.592,310.8873l-2.3396-5.6348l30.6785-12.7378l2.3396,5.6348L333.592,310.8873z M311.4937,333.0077
		l-27.667,29.333c-1.8008,1.9087-2.4707,4.4684-2.052,6.8687c-9.4189-3.7295-20.0178-8.1411-30.525-12.9384l9.4994-3.9442
		c0.7299,1.2332,1.9619,2.1587,3.4791,2.4001c2.7026,0.4299,5.2657-1.4294,5.6957-4.1321l0.354-2.2245l48.5811-20.171
		l-5.6973,3.4587C312.5474,332.0311,311.9858,332.4852,311.4937,333.0077z M514.5319,235.7603l-30.6783,12.7378l-2.3396-5.6348
		l30.6783-12.7379L514.5319,235.7603z M502.709,302.1702c-5.7109,5.6271-44.2747,27.5498-86.4583,45.7906l-21.3196-51.3472
		l131.2454-54.4938C516.7183,269.0822,506.1782,296.7809,502.709,302.1702z" id="id_101" style="fill: rgb(243, 243, 243);"></path>
	<path d="M464.8711,157.1597c9.2118,17.471,30.3872,25.3582,48.9866,17.6358c18.6028-7.724,27.9659-28.291,22.092-47.148
		c-0.3506-1.1298-0.7495-2.2562-1.2129-3.3724c-8.1853-19.7137-30.8035-29.0611-50.5225-20.8737
		c-19.7136,8.1852-29.0574,30.8033-20.8721,50.517C463.8057,155.0347,464.3201,156.1132,464.8711,157.1597z M489.4135,115.9232
		c12.781-5.3068,27.4955,0.7726,32.8011,13.5511c0.281,0.6768,0.5396,1.396,0.7891,2.2006
		c3.8756,12.4419-2.2917,25.5944-14.3452,30.5991c-12.0497,5.0031-25.7183,0.0858-31.7947-11.438
		c-0.3822-0.7273-0.7112-1.4229-0.9993-2.1169C470.5587,135.9406,476.636,121.2285,489.4135,115.9232z" id="id_102" style="fill: rgb(243, 243, 243);"></path>
	<path d="M488.8569,144.5124c2.7871,5.2863,9.0654,7.5388,14.6025,5.2398c5.5393-2.3,8.377-8.3382,6.594-14.0615
		c-0.1218-0.3938-0.2397-0.7262-0.3606-1.0172c-2.4392-5.8745-9.2046-8.6681-15.0803-6.2285
		c-5.8721,2.4381-8.6655,9.2006-6.2263,15.0751C488.5146,143.8295,488.6716,144.1592,488.8569,144.5124z" id="id_103" style="fill: rgb(243, 243, 243);"></path>
	<path d="M108.0002,305.3344c9.2119,17.4712,30.3872,25.3584,48.9866,17.6357c18.6028-7.7239,27.9661-28.2909,22.092-47.1479
		c-0.3506-1.1299-0.7495-2.2561-1.2129-3.3723c-8.1853-19.7137-30.8033-29.061-50.5223-20.8737
		c-19.7137,8.1852-29.0574,30.8033-20.8722,50.517C106.9349,303.2094,107.4492,304.2877,108.0002,305.3344z M132.5427,264.0979
		c12.781-5.3068,27.4954,0.7726,32.801,13.5511c0.281,0.6768,0.5396,1.396,0.7891,2.2007
		c3.8757,12.4419-2.2916,25.5942-14.3451,30.5989c-12.0497,5.0032-25.7183,0.0859-31.7947-11.4379
		c-0.3822-0.7273-0.7113-1.423-0.9994-2.1168C113.688,284.1154,119.7654,269.4032,132.5427,264.0979z" id="id_104" style="fill: rgb(243, 243, 243);"></path>
	<path d="M131.9862,292.6871c2.787,5.2863,9.0654,7.5387,14.6024,5.2397c5.5394-2.3,8.377-8.3381,6.5941-14.0615
		c-0.1219-0.3938-0.2399-0.7262-0.3607-1.0172c-2.4391-5.8745-9.2046-8.6681-15.0803-6.2284
		c-5.8719,2.438-8.6654,9.2004-6.2263,15.075C131.6438,292.0042,131.8009,292.3339,131.9862,292.6871z" id="id_105" style="fill: rgb(243, 243, 243);"></path>
	
		<rect x="448.733" y="282.9223" transform="matrix(0.3819 -0.9242 0.9242 0.3819 2.6645 599.6838)" width="1.863" height="29.8553" id="id_106" style="fill: rgb(243, 243, 243);"></rect>
	
		<rect x="445.5668" y="290.5844" transform="matrix(0.3819 -0.9242 0.9242 0.3819 -6.3761 601.4902)" width="1.863" height="29.8553" id="id_107" style="fill: rgb(243, 243, 243);"></rect>
	
		<rect x="447.1499" y="270.7141" transform="matrix(0.3819 -0.9242 0.9242 0.3819 -1.8559 600.5869)" width="1.863" height="61.9338" id="id_108" style="fill: rgb(243, 243, 243);"></rect>
	<path d="M633.5474,173.3661c-0.3965-0.3799-1.0264-0.3672-1.4092,0.0322c-0.3818,0.3965-0.3701,1.0283,0.0254,1.4121
		c0.0166,0.0156,1.6055,1.582,1.6006,3.6689c-0.0039,1.3359-0.6631,2.6445-1.96,3.8896c-0.3984,0.3828-0.4111,1.0156-0.0293,1.4141
		c0.1963,0.2051,0.459,0.3076,0.7217,0.3076c0.249,0,0.499-0.0928,0.6924-0.2783c1.7119-1.6436,2.5781-3.4443,2.5752-5.3525
		C635.7593,175.5106,633.6372,173.452,633.5474,173.3661z" id="id_109" style="fill: rgb(243, 243, 243);"></path>
	<path d="M636.5366,171.3661c-0.4023,0.376-0.4229,1.0088-0.0469,1.4121c0.0234,0.0264,2.4258,2.6475,2.2646,6.0732
		c-0.1064,2.2441-1.2842,4.3799-3.5,6.3506c-0.4131,0.3662-0.4502,0.999-0.083,1.4111c0.1973,0.2227,0.4717,0.3359,0.7471,0.3359
		c0.2363,0,0.4736-0.083,0.6641-0.2529c2.6426-2.3477,4.0459-4.9639,4.1709-7.7754c0.1895-4.2783-2.6836-7.3818-2.8057-7.5117
		C637.5679,171.0067,636.939,170.9872,636.5366,171.3661z" id="id_110" style="fill: rgb(243, 243, 243);"></path>
	<path d="M514.395,316.8505c-0.5313,0.1523-0.8389,0.7051-0.6875,1.2363c0.126,0.4395,0.5264,0.7256,0.9609,0.7256
		c0.0918,0,0.1836-0.0127,0.2754-0.0381c2.2813-0.6514,3.8896-1.8379,4.7803-3.5264c1.376-2.6074,0.4648-5.4199,0.4248-5.5381
		c-0.1748-0.5234-0.7363-0.8076-1.2646-0.6318c-0.5234,0.1738-0.8066,0.7402-0.6318,1.2646
		c0.0068,0.0205,0.6689,2.1406-0.2969,3.9717C517.3296,315.5018,516.1313,316.3553,514.395,316.8505z" id="id_111" style="fill: rgb(243, 243, 243);"></path>
	<path d="M523.7271,309.3397c-0.5322,0.1445-0.8467,0.6943-0.7031,1.2266c0.0088,0.0342,0.9053,3.4756-0.8408,6.4277
		c-1.1436,1.9336-3.1836,3.2705-6.0645,3.9736c-0.5361,0.1309-0.8652,0.6729-0.7344,1.209c0.1123,0.457,0.5205,0.7627,0.9707,0.7627
		c0.0791,0,0.1582-0.0088,0.2383-0.0283c3.4336-0.8389,5.8984-2.4941,7.3242-4.9199c2.1699-3.6924,1.083-7.7803,1.0352-7.9521
		C524.8062,309.5067,524.2583,309.1991,523.7271,309.3397z" id="id_112" style="fill: rgb(243, 243, 243);"></path>
	<path d="M451.9097,141.3007c0.1904,0.1689,0.4268,0.252,0.6631,0.252c0.2734,0,0.5469-0.1123,0.7441-0.332
		c0.3682-0.4102,0.334-1.042-0.0742-1.4111c-0.0166-0.0146-1.6592-1.5254-1.7266-3.6113c-0.042-1.3359,0.5713-2.667,1.8242-3.9561
		c0.3848-0.3965,0.376-1.0293-0.0195-1.4141c-0.3955-0.3867-1.0303-0.376-1.4141,0.0195c-0.1482,0.1526-0.2816,0.3074-0.4163,0.462
		c-1.3669,1.5701-2.0347,3.2412-1.9724,4.9775c0.0583,1.6011,0.7292,2.902,1.3472,3.7841
		C451.3845,140.8126,451.8673,141.2628,451.9097,141.3007z" id="id_113" style="fill: rgb(243, 243, 243);"></path>
	<path d="M449.8276,128.118c-0.3809-0.4023-1.0137-0.415-1.4131-0.0342c-2.5596,2.4375-3.8711,5.1006-3.8984,7.9141
		c-0.043,4.2832,2.9365,7.2861,3.0635,7.4111c0.1953,0.1934,0.4492,0.29,0.7041,0.29c0.2578,0,0.5146-0.0986,0.71-0.2959
		c0.3887-0.3926,0.3867-1.0254-0.0059-1.4141c-0.0254-0.0254-2.5059-2.5244-2.4717-5.9717c0.0215-2.252,1.125-4.4346,3.2773-6.4863
		C450.1938,129.1503,450.2085,128.5175,449.8276,128.118z" id="id_114" style="fill: rgb(243, 243, 243);"></path>
	<path d="M524.0815,99.8163c-0.5342,0.1426-0.8506,0.6904-0.708,1.2236c0.1426,0.5342,0.6973,0.8516,1.2236,0.708
		c0.0205-0.0059,2.1787-0.5391,3.9473,0.5371c1.1475,0.6973,1.9258,1.9443,2.3154,3.708c0.1035,0.4668,0.5166,0.7842,0.9756,0.7842
		c0.0713,0,0.1436-0.0078,0.2168-0.0234c0.5391-0.1191,0.8799-0.6533,0.7607-1.1924c-0.0903-0.4086-0.2048-0.79-0.3308-1.1587
		c-0.5875-1.7209-1.5547-3.0103-2.8987-3.8267c-0.97-0.59-1.99-0.8412-2.8862-0.9276
		C525.2671,99.5108,524.1548,99.7959,524.0815,99.8163z" id="id_115" style="fill: rgb(243, 243, 243);"></path>
	<path d="M525.1138,96.9979c0.0342-0.0078,3.4844-0.707,6.3457,1.2188c1.8701,1.2568,3.0859,3.3789,3.6152,6.3047
		c0.0879,0.4834,0.5088,0.8223,0.9834,0.8223c0.0586,0,0.1191-0.0049,0.1787-0.0156c0.5439-0.0986,0.9043-0.6191,0.8066-1.1621
		c-0.6299-3.4785-2.1328-6.0381-4.4678-7.6084c-3.5527-2.3916-7.6992-1.5537-7.874-1.5166c-0.54,0.1143-0.8867,0.6445-0.7725,1.1846
		S524.5767,97.1102,525.1138,96.9979z" id="id_116" style="fill: rgb(243, 243, 243);"></path>
	<path d="M95.9517,292.3446c0.1904,0.1689,0.4268,0.252,0.6631,0.252c0.2734,0,0.5469-0.1123,0.7441-0.332
		c0.3682-0.4102,0.334-1.042-0.0742-1.4111c-0.0166-0.0146-1.6592-1.5254-1.7266-3.6113c-0.042-1.3359,0.5713-2.667,1.8242-3.9561
		c0.3848-0.3965,0.376-1.0293-0.0195-1.4141c-0.3965-0.3867-1.0303-0.375-1.4141,0.0195c-0.8804,0.9058-1.5117,1.8486-1.9069,2.8193
		c-0.3473,0.8533-0.5138,1.7278-0.4818,2.6201c0.0289,0.7939,0.2142,1.5103,0.4639,2.146
		C94.7009,291.2013,95.8838,292.2839,95.9517,292.3446z" id="id_117" style="fill: rgb(243, 243, 243);"></path>
	<path d="M93.8696,279.162c-0.3809-0.4014-1.0146-0.415-1.4131-0.0342c-2.5596,2.4375-3.8711,5.1006-3.8984,7.9141
		c-0.042,4.2822,2.9375,7.2852,3.0645,7.4102c0.1953,0.1934,0.4492,0.29,0.7041,0.29c0.2578,0,0.5146-0.0986,0.71-0.2959
		c0.3887-0.3926,0.3857-1.0254-0.0059-1.4141c-0.0254-0.0254-2.5068-2.5244-2.4727-5.9707c0.0215-2.2529,1.125-4.4346,3.2773-6.4863
		C94.2358,280.1942,94.2505,279.5614,93.8696,279.162z" id="id_118" style="fill: rgb(243, 243, 243);"></path>
	<path d="M168.6362,252.7928c0.0215-0.0068,2.1865-0.5479,3.9658,0.5449c1.1387,0.6992,1.9131,1.9434,2.3008,3.6992
		c0.1035,0.4668,0.5166,0.7842,0.9756,0.7842c0.0713,0,0.1445-0.0078,0.2168-0.0234c0.5391-0.1191,0.8799-0.6533,0.7607-1.1924
		c-0.5117-2.3164-1.5986-3.9941-3.2305-4.9854c-2.5186-1.5332-5.3809-0.7939-5.501-0.7598
		c-0.5322,0.1416-0.8477,0.6865-0.707,1.2197C167.5571,252.6122,168.105,252.9384,168.6362,252.7928z" id="id_119" style="fill: rgb(243, 243, 243);"></path>
	<path d="M167.9712,247.2694c0.1143,0.54,0.6455,0.8867,1.1846,0.7725c0.0105-0.002,0.3285-0.0648,0.8387-0.1021
		c1.2037-0.0876,3.4991-0.0303,5.5079,1.3208c1.8691,1.2568,3.085,3.3779,3.6143,6.3047c0.0879,0.4834,0.5088,0.8223,0.9834,0.8223
		c0.0586,0,0.1191-0.0049,0.1787-0.0156c0.5439-0.0986,0.9043-0.6191,0.8066-1.1621c-0.6289-3.4785-2.1318-6.0391-4.4668-7.6094
		c-3.5547-2.3906-7.7012-1.5537-7.875-1.5156c-0.3184,0.0673-0.554,0.2858-0.6831,0.5585
		C167.9703,246.8339,167.9242,247.0472,167.9712,247.2694z" id="id_120" style="fill: rgb(243, 243, 243);"></path>
	<polygon points="34.572,391.5009 35.6576,393.7533 36.9714,392.7279 37.1414,391.1245 36.2705,390.7728 	" id="id_121" style="fill: rgb(243, 243, 243);"></polygon>
	<polygon points="400.454,372.8043 394.4357,379.8212 405.0239,384.4105 411.6255,377.9939 409.6217,373.2306 	" id="id_122" style="fill: rgb(243, 243, 243);"></polygon>
	<polygon points="13.6555,376.599 12.7666,382.0673 17.8623,386.1163 21.0212,384.2809 20.4917,377.8141 	" id="id_123" style="fill: rgb(243, 243, 243);"></polygon>
	<polygon points="419.4209,377.6451 425.905,382.5604 429.6951,379.7157 430.9792,370.4789 423.1731,369.4625 	" id="id_124" style="fill: rgb(243, 243, 243);"></polygon>
	<polygon points="2.8726,386.0094 0,389.3226 2.6467,393.5818 6.9238,392.0814 6.7681,389.4463 	" id="id_125" style="fill: rgb(243, 243, 243);"></polygon>
	<polygon points="64.0681,383.9563 59.1492,383.7994 56.9854,392.0341 61.4709,396.1295 65.7423,394.3628 68.531,391.2623 
		68.314,387.1656 	" id="id_126" style="fill: rgb(243, 243, 243);"></polygon>
	<polygon points="440.4672,379.0038 437.5903,381.2291 440.7703,384.9845 442.7673,382.3828 442.2997,379.2441 	" id="id_127" style="fill: rgb(243, 243, 243);"></polygon>
	<polygon points="223.2175,384.1681 223.1649,385.3552 224.7495,387.0748 226.9792,384.8302 225.2021,383.6949 	" id="id_128" style="fill: rgb(243, 243, 243);"></polygon>
	<polygon points="124.01,392.8824 124.4857,395.5748 128.9044,398.6442 131.463,394.892 128.2305,390.8273 	" id="id_129" style="fill: rgb(243, 243, 243);"></polygon>
	<polygon points="466.6993,378.9708 465.7701,380.9171 467.199,384.9137 472.5154,382.7434 470.351,379.5868 	" id="id_130" style="fill: rgb(243, 243, 243);"></polygon>
	<polygon points="159.2324,393.5524 159.7329,394.8456 162.2324,395.9406 163.5629,392.4965 161.1316,392.1163 	" id="id_131" style="fill: rgb(243, 243, 243);"></polygon>
	<polygon points="42.6842,376.5369 35.6237,382.5365 39.533,389.9427 44.3059,388.9385 49.5231,380.8817 	" id="id_132" style="fill: rgb(243, 243, 243);"></polygon>
	<polygon points="446.226,369.3771 443.792,370.9059 446.0038,374.1044 447.7749,372.2118 447.6487,369.7072 	" id="id_133" style="fill: rgb(243, 243, 243);"></polygon>
	<polygon points="48.3865,388.0804 48.2041,389.0016 49.2373,390.5338 51.2466,389.0457 49.9934,387.9471 	" id="id_134" style="fill: rgb(243, 243, 243);"></polygon>
	<polygon points="460.0181,368.1783 458.1899,372.0088 460.0381,374.5226 463.4764,374.2509 464.1903,370.4906 462.0537,367.4659 	
		" id="id_135" style="fill: rgb(243, 243, 243);"></polygon>
	<polygon points="480.8094,376.8124 479.1547,380.401 481.726,380.972 483.8518,379.5668 483.4052,378.1515 	" id="id_136" style="fill: rgb(243, 243, 243);"></polygon>
	<polygon points="26.582,390.4478 26.8955,393.7721 29.8904,394.1473 30.5796,392.5304 29.2778,389.3256 	" id="id_137" style="fill: rgb(243, 243, 243);"></polygon>
	<polygon points="17.1853,391.3207 16.9287,392.2397 17.8564,393.8724 20.0078,392.521 18.8237,391.3104 	" id="id_138" style="fill: rgb(243, 243, 243);"></polygon>
	<polygon points="454.0007,379.0878 452.4387,382.649 454.9792,383.1636 457.045,381.7418 456.5793,380.3575 	" id="id_139" style="fill: rgb(243, 243, 243);"></polygon>
	<polygon points="251.9387,376.5554 249.9617,379.3267 253.8257,381.8333 254.9128,378.9623 253.646,376.2758 	" id="id_140" style="fill: rgb(243, 243, 243);"></polygon>
	<polygon points="59.2749,373.2097 57.6764,373.4213 57.5391,374.3503 58.6459,375.8302 60.5801,374.2458 	" id="id_141" style="fill: rgb(243, 243, 243);"></polygon>
	<polygon points="248.7434,392.9982 246.5248,395.6522 250.2448,398.4923 251.5693,395.6681 250.4949,392.8475 	" id="id_142" style="fill: rgb(243, 243, 243);"></polygon>
	<polygon points="210.8845,386.3832 210.0503,388.7976 212.2644,393.3105 218.2319,390.0481 215.2639,386.6217 	" id="id_143" style="fill: rgb(243, 243, 243);"></polygon>
	<polygon points="265.1361,386.6487 264.3713,390.264 267.3225,393.0887 271.2087,390.755 272.1975,386.4821 269.9629,385.2446 	" id="id_144" style="fill: rgb(243, 243, 243);"></polygon>
	<path d="M225.5123,204.1664c0,4.3877,3.5558,7.9441,7.9429,7.9441c4.3865,0,7.9429-3.5564,7.9429-7.9441
		c0-4.3865-3.5564-7.9429-7.9429-7.9429C229.0681,196.2235,225.5123,199.7799,225.5123,204.1664z" id="id_145" style="fill: rgb(243, 243, 243);"></path>
	<path d="M206.072,238.368c0,1.9937,1.6161,3.6099,3.6094,3.6099c1.9937,0,3.6094-1.6162,3.6094-3.6099
		c0-1.9929-1.6157-3.6091-3.6094-3.6091C207.6881,234.7589,206.072,236.3751,206.072,238.368z" id="id_146" style="fill: rgb(243, 243, 243);"></path>
	<path d="M219.7753,218.9545c0-3.2021-2.5962-5.7991-5.7996-5.7991c-3.2028,0-5.7994,2.5969-5.7994,5.7991
		c0,3.2034,2.5967,5.8,5.7994,5.8C217.1791,224.7545,219.7753,222.1578,219.7753,218.9545z" id="id_147" style="fill: rgb(243, 243, 243);"></path>
	<path d="M182.9531,72.4503c-2.6868-6.1251-8.7964-10.4084-15.9148-10.4084c-9.5969,0-17.3772,7.7802-17.3772,17.377
		c0,1.0323,0.1069,2.038,0.2795,3.0208c1.4319,8.1561,8.5328,14.3585,17.0977,14.3585c1.2822,0,2.5283-0.1484,3.7316-0.4119
		c4.5769,9.5214,13.4645,16.5737,24.131,18.6416c-0.3948,1.7601-0.61,3.5881-0.61,5.4672c0,11.6455,8.0023,21.4198,18.8075,24.1315
		c1.6033,0.4023,3.2679,0.6483,4.9775,0.7226c-1.0659,2.4276-1.6675,5.105-1.6675,7.926c0,9.4814,6.6838,17.3953,15.5952,19.3036
		c-0.3276,0.0162-0.6509,0.0497-0.9824,0.0497c-6.3552,0-11.9937-3.0148-15.6057-7.6782c-4.3542,2.4304-7.302,7.0776-7.302,12.4175
		c0,7.8521,6.365,14.2183,14.2192,14.2183c7.8519,0,14.2181-6.3662,14.2181-14.2183c0-1.5212-0.2446-2.9841-0.6871-4.3583
		c0.0981,0.0013,0.1931,0.0148,0.2914,0.0148c10.9066,0,19.7479-8.8425,19.7479-19.749c0-9.5487-6.7798-17.5152-15.7891-19.3488
		c1.9653-3.0577,3.2781-6.572,3.745-10.3505c-8.8605-2.3976-15.7548-9.5634-17.7645-18.5771
		c0.6404-0.6782,1.2534-1.3819,1.8367-2.1111c2.8538,10.5958,12.5245,18.3966,24.0227,18.3966
		c9.1183,0,17.0861-4.9072,21.4188-12.2216c2.1974-3.7096,3.463-8.0362,3.463-12.6602c0-9.7017-5.5559-18.1006-13.6567-22.2042
		c-4.2737,7.2589-12.1638,12.1329-21.1968,12.1329c-0.6655,0-1.3228-0.0341-1.975-0.0859
		c12.6548-1.0068,22.6104-11.5859,22.6104-24.4996c0-12.9117-9.9556-23.4926-22.6104-24.4996
		c-0.6522-0.0519-1.3097-0.086-1.9752-0.086c-9.7168,0-18.1157,5.6395-22.1074,13.8225c-4.4041-2.0869-9.3262-3.2584-14.5234-3.2584
		c-10.7815,0-20.3831,5.0299-26.6057,12.8643C179.0204,63.1328,182.0687,67.4122,182.9531,72.4503z" id="id_148" style="fill: rgb(243, 243, 243);"></path>
	<path d="M196.6617,32.4207c0,5.4521,4.42,9.8721,9.8734,9.8721s9.8733-4.42,9.8733-9.8721c0-5.4546-4.4199-9.8745-9.8733-9.8745
		S196.6617,26.9661,196.6617,32.4207z" id="id_149" style="fill: rgb(243, 243, 243);"></path>
	<path d="M153.6115,36.5677c0,7.7431,6.2784,14.0191,14.0216,14.0191s14.0203-6.276,14.0203-14.0191
		c0-7.7456-6.2771-14.0215-14.0203-14.0215S153.6115,28.8221,153.6115,36.5677z" id="id_150" style="fill: rgb(243, 243, 243);"></path>
	<path d="M218.6296,5.5295c0-3.0544-2.4751-5.5295-5.5289-5.5295s-5.5289,2.4751-5.5289,5.5295
		c0,3.0531,2.4751,5.5283,5.5289,5.5283S218.6296,8.5826,218.6296,5.5295z" id="id_151" style="fill: rgb(243, 243, 243);"></path>
	<path d="M135.8438,51.3876c0-3.0544-2.4751-5.5295-5.5288-5.5295s-5.5289,2.4751-5.5289,5.5295
		c0,3.0531,2.4752,5.5283,5.5289,5.5283S135.8438,54.4407,135.8438,51.3876z" id="id_152" style="fill: rgb(243, 243, 243);"></path>
	<polygon points="499.0327,372.1934 494.6459,379.7708 500.2292,382.1636 514.9851,381.7648 518.6459,374.4969 510.9971,370.9969 	
		" id="id_153" style="fill: rgb(243, 243, 243);"></polygon>
	<polygon points="318.2292,385.4969 304.7292,385.4969 299.2292,390.9969 295.7292,394.4969 303.9792,395.9969 315.9792,395.4969 
		318.9792,391.9969 	" id="id_154" style="fill: rgb(243, 243, 243);"></polygon>
	<polygon points="366.4672,386.0038 363.5903,388.2291 366.7703,391.9845 368.7673,389.3828 368.2997,386.2441 	" id="id_155" style="fill: rgb(243, 243, 243);"></polygon>
	<polygon points="392.6993,385.9708 391.7701,387.9171 393.199,391.9137 398.5154,389.7434 396.351,386.5868 	" id="id_156" style="fill: rgb(243, 243, 243);"></polygon>
	<polygon points="380.0007,386.0878 378.4387,389.649 380.9792,390.1636 383.045,388.7418 382.5793,387.3575 	" id="id_157" style="fill: rgb(243, 243, 243);"></polygon>
</g>
</svg>