<svg version="1.1" id="Layer_1" xmlns="http://www.w3.org/2000/svg" xmlns:xlink="http://www.w3.org/1999/xlink" x="0px" y="0px" viewBox="0 0 44 27" style="enable-background:new 0 0 44 27;" xml:space="preserve">
<g id="metropolitan-7_1_">
	<path d="M43,26v-4h-2v-5h-1v-1h-6V9h-5v4h-5v7h-1V6h-1V4h-2V3h-1V0h-1v3h-1v1h-2v2h-1v10h-1v-5h-1V9H8v2H5v10H2v5H0v1h44v-1H43z
		 M38,23v1h-2v-1H38z M36,21v-1h2v1H36z M27,16h2v1h-2V16z M27,19h2v1h-2V19z M27,22h2v1h-2V22z M20,13v1h-3v-1H20z M17,10V9h3v1H17
		z M20,17v1h-3v-1H20z M20,21v1h-3v-1H20z M8,14h2v1H8V14z M8,17h2v1H8V17z M8,20h2v1H8V20z M8,23h2v1H8V23z" id="id_101" style="fill: rgb(243, 243, 243);"></path>
</g>
</svg>